<?xml version="1.0" encoding="UTF-8" standalone="no"?>
<svg
   viewBox="0 0 793.70079 1122.5197"
   width="793.70081"
   height="1122.5197"
   version="1.1"
   id="svg36"
   xmlns="http://www.w3.org/2000/svg"
   xmlns:svg="http://www.w3.org/2000/svg">
  <desc
     id="desc1">symbols.dxf - scale = 1.000000, origin = (0.000000, 0.000000), method = manual</desc>
  <defs
     id="defs4" />
  <g
     id="g36">
    <path
       d="m 513.17969,552.70117 -32.73047,56.69336 32.73047,56.69141 h 65.46289 L 611.375,609.39453 578.64258,552.70117 Z m 29.50781,9.5586 a 47.244095,47.244095 0 0 1 50.46875,47.13476 47.244141,47.244141 0 0 1 -94.48828,0 47.244095,47.244095 0 0 1 44.01953,-47.13476 z"
       style="fill:#000000;fill-opacity:1;stroke:#000000"
       id="path43" />
    <path
       d="m 543.20312,569.80078 a 39.68504,39.68504 0 0 0 -36.97656,39.59375 39.68555,39.68555 0 0 0 79.3711,0 39.68504,39.68504 0 0 0 -42.39454,-39.59375 z m 1.00782,14.73828 a 24.913595,24.913595 0 0 1 26.61523,24.85547 24.914062,24.914062 0 0 1 -49.82812,0 24.913595,24.913595 0 0 1 23.21289,-24.85547 z"
       style="fill:#000000;fill-opacity:1;stroke:#000000"
       id="path44" />
  </g>
</svg>
