<?xml version="1.0" encoding="UTF-8" standalone="no"?>
<svg
   viewBox="0 0 793.70079 1122.5197"
   width="793.70081"
   height="1122.5197"
   version="1.1"
   id="svg36"
   xmlns="http://www.w3.org/2000/svg"
   xmlns:svg="http://www.w3.org/2000/svg">
  <desc
     id="desc1">symbols.dxf - scale = 1.000000, origin = (0.000000, 0.000000), method = manual</desc>
  <defs
     id="defs4" />
  <g
     id="g36">
    <path
       d="m 593.95703,130.47656 a 52.913386,52.913386 0 0 0 -49.30273,52.7793 52.913386,52.913386 0 0 0 105.82617,0 52.913386,52.913386 0 0 0 -56.52344,-52.7793 z m 3.34766,14.99414 a 3.779528,3.779528 0 0 1 3.53515,1.88086 l 5.45703,9.44727 a 11.338583,11.338583 0 0 0 9.81836,5.66992 h 10.91016 a 3.779528,3.779528 0 0 1 3.27344,5.66992 l -5.45508,9.44922 a 11.338583,11.338583 0 0 0 0,11.33789 l 5.45508,9.44922 a 3.779528,3.779528 0 0 1 -3.27344,5.66797 h -10.91016 a 11.338583,11.338583 0 0 0 -9.81836,5.66992 l -5.45703,9.44922 a 3.779528,3.779528 0 0 1 -6.54492,0 l -5.45508,-9.44922 a 11.338583,11.338583 0 0 0 -9.82031,-5.66992 h -10.91016 a 3.779528,3.779528 0 0 1 -3.27343,-5.66797 l 5.45508,-9.44922 a 11.338583,11.338583 0 0 0 0,-11.33789 l -5.45508,-9.44922 a 3.779528,3.779528 0 0 1 3.27343,-5.66992 h 10.91016 a 11.338583,11.338583 0 0 0 9.82031,-5.66992 l 5.45508,-9.44727 a 3.779528,3.779528 0 0 1 3.00977,-1.88086 z"
       style="fill:#000000;fill-opacity:1;stroke:#000000"
       id="path38" />
  </g>
</svg>
