<?xml version="1.0" encoding="UTF-8" standalone="no"?>
<svg
   viewBox="0 0 793.70079 1122.5197"
   width="793.70081"
   height="1122.5197"
   version="1.1"
   id="svg8"
   xmlns="http://www.w3.org/2000/svg"
   xmlns:svg="http://www.w3.org/2000/svg">
  <desc
     id="desc1">screws.dxf - scale = 1.000000, origin = (0.000000, 0.000000), method = manual</desc>
  <defs
     id="defs4" />
  <g
     id="g8">
    <path
       d="m 157.02792,271.13648 h -4.79378 l -11.97822,-11.97822 v 29.62573 l 11.97822,-11.97822 h 4.79378 l 1.77165,4.72441 1.77165,-4.72441 h 4.01575 l 1.77165,4.72441 1.77166,-4.72441 h 4.01575 l 1.77165,4.72441 1.77165,-4.72441 h 4.01575 l 1.77165,4.72441 1.77166,-4.72441 h 4.01575 l 1.77165,4.72441 1.77165,-4.72441 h 4.01575 l 1.77165,4.72441 1.77166,-4.72441 h 4.01575 l 1.77165,4.72441 1.77165,-4.72441 h 4.01575 l 1.77166,4.72441 1.77165,-4.72441 h 4.01575 l 1.77165,4.72441 1.77165,-4.72441 h 6.78103 v -5.66929 h -6.78103 l -1.77165,-4.72441 -1.77165,4.72441 h -4.01575 l -1.77165,-4.72441 -1.77166,4.72441 h -4.01575 l -1.77165,-4.72441 -1.77165,4.72441 h -4.01575 l -1.77166,-4.72441 -1.77165,4.72441 h -4.01575 l -1.77165,-4.72441 -1.77165,4.72441 h -4.01575 l -1.77166,-4.72441 -1.77165,4.72441 h -4.01575 l -1.77165,-4.72441 -1.77165,4.72441 h -4.01575 l -1.77166,-4.72441 -1.77165,4.72441 h -4.01575 l -1.77165,-4.72441 z"
       style="fill:#000000;fill-opacity:1;stroke:#000000"
       id="path6" />
  </g>
</svg>
