<?xml version="1.0" encoding="UTF-8" standalone="no"?>
<svg
   viewBox="0 0 793.70079 1122.5197"
   width="793.70081"
   height="1122.5197"
   version="1.1"
   id="svg8"
   sodipodi:docname="screws.dxf"
   inkscape:export-filename="TRP_panHead_selfTapping.svg"
   inkscape:export-xdpi="96"
   inkscape:export-ydpi="96"
   xmlns:inkscape="http://www.inkscape.org/namespaces/inkscape"
   xmlns:sodipodi="http://sodipodi.sourceforge.net/DTD/sodipodi-0.dtd"
   xmlns="http://www.w3.org/2000/svg"
   xmlns:svg="http://www.w3.org/2000/svg">
  <sodipodi:namedview
     id="namedview8"
     pagecolor="#ffffff"
     bordercolor="#000000"
     borderopacity="0.25"
     inkscape:showpageshadow="2"
     inkscape:pageopacity="0.0"
     inkscape:pagecheckerboard="0"
     inkscape:deskcolor="#d1d1d1">
    <inkscape:page
       x="0"
       y="0"
       width="793.70081"
       height="1122.5197"
       id="page2"
       margin="0"
       bleed="0" />
  </sodipodi:namedview>
  <desc
     id="desc1">screws.dxf - scale = 1.000000, origin = (0.000000, 0.000000), method = manual</desc>
  <defs
     id="defs4" />
  <g
     inkscape:groupmode="layer"
     inkscape:label="0"
     id="g8">
    <path
       d="m 152.23414,414.75853 v -10.45521 h -14.63226 v 26.57971 h 14.63226 v -10.45521 h 4.79378 l 1.77165,4.72441 1.77165,-4.72441 h 4.01575 l 1.77165,4.72441 1.77166,-4.72441 h 4.01575 l 1.77165,4.72441 1.77165,-4.72441 h 4.01575 l 1.77165,4.72441 1.77166,-4.72441 h 4.01575 l 1.77165,4.72441 1.77165,-4.72441 h 4.01575 l 1.77165,4.72441 1.77166,-4.72441 h 4.01575 l 1.77165,4.72441 1.77165,-4.72441 h 4.01575 l 1.77166,4.72441 1.77165,-4.72441 h 4.01575 l 1.77165,4.72441 1.77165,-4.72441 h 6.78103 v -5.66929 h -6.78103 l -1.77165,-4.72441 -1.77165,4.72441 h -4.01575 l -1.77165,-4.72441 -1.77166,4.72441 h -4.01575 l -1.77165,-4.72441 -1.77165,4.72441 h -4.01575 l -1.77166,-4.72441 -1.77165,4.72441 h -4.01575 l -1.77165,-4.72441 -1.77165,4.72441 h -4.01575 l -1.77166,-4.72441 -1.77165,4.72441 h -4.01575 l -1.77165,-4.72441 -1.77165,4.72441 h -4.01575 l -1.77166,-4.72441 -1.77165,4.72441 h -4.01575 l -1.77165,-4.72441 -1.77165,4.72441 z"
       style="fill:#000000;fill-opacity:1;stroke:#000000"
       id="path8" />
  </g>
</svg>
