<?xml version="1.0" encoding="UTF-8" standalone="no"?>
<!-- Created with Inkscape (http://www.inkscape.org/) -->

<svg
   version="1.1"
   id="svg1"
   width="266.66666"
   height="266.66666"
   viewBox="0 0 266.66666 266.66666"
   sodipodi:docname="Design File.ai"
   xmlns:inkscape="http://www.inkscape.org/namespaces/inkscape"
   xmlns:sodipodi="http://sodipodi.sourceforge.net/DTD/sodipodi-0.dtd"
   xmlns="http://www.w3.org/2000/svg"
   xmlns:svg="http://www.w3.org/2000/svg">
  <defs
     id="defs1">
    <clipPath
       clipPathUnits="userSpaceOnUse"
       id="clipPath19">
      <path
         d="M 0,200 H 200 V 0 H 0 Z"
         transform="translate(-31.000001,-100.00001)"
         id="path19" />
    </clipPath>
  </defs>
  <sodipodi:namedview
     id="namedview1"
     pagecolor="#ffffff"
     bordercolor="#000000"
     borderopacity="0.25"
     inkscape:showpageshadow="2"
     inkscape:pageopacity="0.0"
     inkscape:pagecheckerboard="0"
     inkscape:deskcolor="#d1d1d1">
    <inkscape:page
       x="0"
       y="0"
       inkscape:label="8"
       id="page17"
       width="266.66666"
       height="266.66666"
       margin="3.4666533 3.4666667 3.4666667 3.46668"
       bleed="0" />
  </sodipodi:namedview>
  <g
     id="layer-MC0"
     inkscape:groupmode="layer"
     inkscape:label="Layer 1"
     transform="translate(-2006.6667)">
    <path
       id="path18"
       d="m 0,0 c 11.3,4.7 21,13.2 27,23.7 6.1,10.5 9,22.3 7.5,36 9.8,-7.4 21.9,-11.5 34.1,-11.5 12.2,0 23.8,3.4 34.9,11.5 -1.6,-12.2 1,-24.7 7,-35.3 C 116.6,13.9 125.3,5.5 138,0 c -11.3,-4.8 -21,-13.3 -27,-23.7 -6.1,-10.5 -9,-22.3 -7.5,-36 -9.8,7.4 -21.9,11.5 -34.1,11.5 -12.2,0 -23.8,-3.3 -34.9,-11.5 1.6,12.2 -1,24.7 -7,35.2 C 21.4,-13.9 12.7,-5.5 0,0 m -28.4,0 c 0,53.8 43.6,97.4 97.4,97.4 53.8,0 97.4,-43.6 97.4,-97.4 0,-53.8 -43.6,-97.4 -97.4,-97.4 -53.8,0 -97.4,43.6 -97.4,97.4"
       style="fill:#000000;fill-opacity:1;fill-rule:evenodd;stroke:none"
       transform="matrix(1.3333333,0,0,-1.3333333,2048,133.33333)"
       clip-path="url(#clipPath19)" />
  </g>
</svg>
